<?xml version="1.0" encoding="utf-8"?>
<!-- Generator: Adobe Illustrator 18.1.1, SVG Export Plug-In . SVG Version: 6.00 Build 0)  -->
<svg version="1.1" id="ico-mailcloack" xmlns="http://www.w3.org/2000/svg" xmlns:xlink="http://www.w3.org/1999/xlink" x="0px" y="0px"
	 viewBox="0 0 50 50" enable-background="new 0 0 50 50" xml:space="preserve">
<g>
	<path fill="#11C13F" d="M1,8.8h36v22.5H1V8.8z M3.3,29h31.5V13.4L19,21.2L3.3,13.4V29z M34.5,11h-31L19,18.8L34.5,11z"/>
</g>
<g>
	<path fill="#11C13F" d="M27.8,35c0.1,0.1,0.2,0.1,0.3,0.1c0.1,0,0.2-0.1,0.3-0.2c0.1-0.2,0.1-0.4-0.1-0.6c-0.3-0.3-0.7-0.6-1-0.9
		l-3.1-3.1l3.2-3.2C30.5,24,35,23,39.2,24.4c0.2,0.1,0.5,0,0.5-0.3c0.1-0.2,0-0.5-0.3-0.5c-4.5-1.5-9.3-0.4-12.7,3L23,30.4l3.7,3.7
		C27.1,34.4,27.4,34.7,27.8,35z"/>
	<path fill="#11C13F" d="M44.3,26.5c-0.6-0.6-1.2-1.1-1.9-1.5c-0.2-0.1-0.5-0.1-0.6,0.1c-0.1,0.2-0.1,0.5,0.1,0.6
		c0.6,0.4,1.2,0.9,1.7,1.4l3.1,3.1l-3.2,3.2c-3.1,3.1-7.8,4.2-12,2.7c-0.2-0.1-0.5,0-0.5,0.3c-0.1,0.2,0,0.5,0.3,0.5
		c1.3,0.5,2.7,0.7,4.1,0.7c3.2,0,6.4-1.3,8.7-3.6l3.8-3.8L44.3,26.5z"/>
	<path fill="#11C13F" d="M35.9,35.2c-0.9,0-1.8-0.3-2.6-0.7c-0.2-0.1-0.5-0.1-0.6,0.1c-0.1,0.2-0.1,0.5,0.1,0.6
		c0.9,0.6,1.9,0.9,3,0.9c3.2,0,5.7-2.6,5.7-5.7c0-1.1-0.3-2.2-1-3.2c-0.1-0.2-0.4-0.2-0.6-0.1c-0.2,0.1-0.2,0.4-0.1,0.6
		c0.5,0.8,0.8,1.7,0.8,2.7C40.8,33,38.6,35.2,35.9,35.2z"/>
	<path fill="#11C13F" d="M35.9,25.4c0.9,0,1.7,0.2,2.5,0.7c0.2,0.1,0.5,0.1,0.6-0.1c0.1-0.2,0.1-0.5-0.1-0.6
		c-0.9-0.5-1.9-0.8-2.9-0.8c-3.2,0-5.7,2.6-5.7,5.7c0,0.9,0.2,1.7,0.6,2.5c0.1,0.1,0.2,0.2,0.4,0.2c0.1,0,0.1,0,0.2,0
		c0.2-0.1,0.3-0.4,0.2-0.6c-0.3-0.7-0.5-1.4-0.5-2.1C31.1,27.6,33.2,25.4,35.9,25.4z"/>
	<path fill="#11C13F" d="M46.1,19.9c-0.2-0.2-0.4-0.2-0.6,0L25.8,39.5c-0.2,0.2-0.2,0.4,0,0.6c0.1,0.1,0.2,0.1,0.3,0.1
		s0.2,0,0.3-0.1l19.7-19.7C46.3,20.3,46.3,20,46.1,19.9z"/>
</g>
</svg>
